# xmcd
#
# Track frame offsets:
#	150
#	47532
#	107469
#	151063
#	180790
#	202604
#
# Disc length: 3000 seconds
#
# Revision: 3
# Processed by: cddbd v1.5.2PL0 Copyright (c) Steve Scherf et al.
# Submitted via: audiograbber 1.83.01
#
DISCID=300bb606
DTITLE=Frank McCourt - CD06 - Tag und Nacht und auch im Sommer
DYEAR=2006
DGENRE=Speech
TTITLE0=40 - Tag und Nacht und auch im Sommer
TTITLE1=41 - Tag und Nacht und auch im Sommer
TTITLE2=42 - Tag und Nacht und auch im Sommer
TTITLE3=43 - Tag und Nacht und auch im Sommer
TTITLE4=44 - Tag und Nacht und auch im Sommer
TTITLE5=45 - Tag und Nacht und auch im Sommer
EXTD=
EXTT0=
EXTT1=
EXTT2=
EXTT3=
EXTT4=
EXTT5=
PLAYORDER=
